# Blender 4.2.0
# www.blender.org
mtllib AnisotropicTest.mtl
o Cube
v -1.661231 -2.000000 -0.913163
v -1.661231 0.098224 -0.913163
v -0.658904 -2.000000 -1.278016
v -0.658904 0.098224 -1.278016
v -1.296378 -2.000000 0.089164
v -1.296378 0.098224 0.089164
v -0.294051 -2.000000 -0.275689
v -0.294051 0.098224 -0.275689
vn -0.3420 -0.0000 -0.9397
vn 0.9397 -0.0000 -0.3420
vn 0.3420 -0.0000 0.9397
vn -0.9397 -0.0000 0.3420
vn -0.0000 -1.0000 -0.0000
vn -0.0000 1.0000 -0.0000
vt 0.625000 0.000000
vt 0.375000 0.250000
vt 0.375000 0.000000
vt 0.625000 0.250000
vt 0.375000 0.500000
vt 0.625000 0.500000
vt 0.375000 0.750000
vt 0.625000 0.750000
vt 0.375000 1.000000
vt 0.125000 0.750000
vt 0.125000 0.500000
vt 0.875000 0.500000
vt 0.625000 1.000000
vt 0.875000 0.750000
s 0
usemtl DiffuseBlue
f 2/1/1 3/2/1 1/3/1
f 4/4/2 7/5/2 3/2/2
f 8/6/3 5/7/3 7/5/3
f 6/8/4 1/9/4 5/7/4
f 7/5/5 1/10/5 3/11/5
f 4/12/6 6/8/6 8/6/6
f 2/1/1 4/4/1 3/2/1
f 4/4/2 8/6/2 7/5/2
f 8/6/3 6/8/3 5/7/3
f 6/8/4 2/13/4 1/9/4
f 7/5/5 5/7/5 1/10/5
f 4/12/6 2/14/6 6/8/6
o Cube.001
v -2.000000 -2.000000 -2.000000
v -2.000000 2.000000 -2.000000
v 2.000000 -2.000000 -2.000000
v 2.000000 2.000000 -2.000000
v -2.000000 -2.000000 2.000000
v -2.000000 2.000000 2.000000
v 2.000000 -2.000000 2.000000
v 2.000000 2.000000 2.000000
vn -0.0000 -0.0000 -1.0000
vn 1.0000 -0.0000 -0.0000
vn -1.0000 -0.0000 -0.0000
vn -0.0000 -1.0000 -0.0000
vn -0.0000 1.0000 -0.0000
vt 0.625000 0.000000
vt 0.375000 0.250000
vt 0.375000 0.000000
vt 0.625000 0.250000
vt 0.375000 0.500000
vt 0.625000 0.750000
vt 0.375000 1.000000
vt 0.375000 0.750000
vt 0.125000 0.750000
vt 0.125000 0.500000
vt 0.875000 0.500000
vt 0.625000 0.500000
vt 0.625000 1.000000
vt 0.875000 0.750000
s 0
usemtl DiffuseGray
f 10/15/7 11/16/7 9/17/7
f 12/18/8 15/19/8 11/16/8
f 14/20/9 9/21/9 13/22/9
f 15/19/10 9/23/10 11/24/10
f 12/25/11 14/20/11 16/26/11
f 10/15/7 12/18/7 11/16/7
f 12/18/8 16/26/8 15/19/8
f 14/20/9 10/27/9 9/21/9
f 15/19/10 13/22/10 9/23/10
f 12/25/11 10/28/11 14/20/11
o Cube.002
v 0.835349 -2.000000 -1.075078
v 0.835349 -0.933333 -1.075078
v 1.728428 -2.000000 -0.491823
v 1.728428 -0.933333 -0.491823
v 0.252094 -2.000000 -0.181998
v 0.252094 -0.933333 -0.181998
v 1.145174 -2.000000 0.401257
v 1.145174 -0.933333 0.401257
vn 0.5468 -0.0000 -0.8373
vn 0.8373 -0.0000 0.5468
vn -0.5468 -0.0000 0.8373
vn -0.8373 -0.0000 -0.5468
vn -0.0000 -1.0000 -0.0000
vn -0.0000 1.0000 -0.0000
vt 0.625000 0.000000
vt 0.375000 0.250000
vt 0.375000 0.000000
vt 0.625000 0.250000
vt 0.375000 0.500000
vt 0.625000 0.500000
vt 0.375000 0.750000
vt 0.625000 0.750000
vt 0.375000 1.000000
vt 0.125000 0.750000
vt 0.125000 0.500000
vt 0.875000 0.500000
vt 0.625000 1.000000
vt 0.875000 0.750000
s 0
usemtl DiffuseRed
f 18/29/12 19/30/12 17/31/12
f 20/32/13 23/33/13 19/30/13
f 24/34/14 21/35/14 23/33/14
f 22/36/15 17/37/15 21/35/15
f 23/33/16 17/38/16 19/39/16
f 20/40/17 22/36/17 24/34/17
f 18/29/12 20/32/12 19/30/12
f 20/32/13 24/34/13 23/33/13
f 24/34/14 22/36/14 21/35/14
f 22/36/15 18/41/15 17/37/15
f 23/33/16 21/35/16 17/38/16
f 20/40/17 18/42/17 22/36/17
o Cube.003
v 1.308412 1.335816 0.924422
v 1.410504 1.364660 0.865843
v 0.559782 1.335816 -0.380308
v 0.661874 1.364660 -0.438887
v 1.618959 -0.125204 0.746235
v 1.721051 -0.096359 0.687657
v 0.870328 -0.125204 -0.558494
v 0.972420 -0.096359 -0.617073
vn -0.2064 0.9713 0.1185
vn -0.4977 -0.0000 -0.8674
vn 0.2064 -0.9713 -0.1185
vn 0.4977 -0.0000 0.8674
vn -0.8424 -0.2380 0.4834
vn 0.8424 0.2380 -0.4834
vt 0.375000 0.000000
vt 0.625000 0.000000
vt 0.625000 0.250000
vt 0.375000 0.250000
vt 0.625000 0.500000
vt 0.375000 0.500000
vt 0.625000 0.750000
vt 0.375000 0.750000
vt 0.625000 1.000000
vt 0.375000 1.000000
vt 0.125000 0.500000
vt 0.125000 0.750000
vt 0.875000 0.500000
vt 0.875000 0.750000
s 0
usemtl roughmirror
f 25/43/18 26/44/18 28/45/18 27/46/18
f 27/46/19 28/45/19 32/47/19 31/48/19
f 31/48/20 32/47/20 30/49/20 29/50/20
f 29/50/21 30/49/21 26/51/21 25/52/21
f 27/53/22 31/48/22 29/50/22 25/54/22
f 32/47/23 28/55/23 26/56/23 30/49/23
