# Blender 4.1.1
# www.blender.org
mtllib Box_TransmissionSphere.mtl
o Cube
v -1.661231 -2.000000 -0.913163
v -1.661231 0.098224 -0.913163
v -0.658904 -2.000000 -1.278016
v -0.658904 0.098224 -1.278016
v -1.296378 -2.000000 0.089164
v -1.296378 0.098224 0.089164
v -0.294051 -2.000000 -0.275689
v -0.294051 0.098224 -0.275689
vn -0.3420 -0.0000 -0.9397
vn 0.9397 -0.0000 -0.3420
vn 0.3420 -0.0000 0.9397
vn -0.9397 -0.0000 0.3420
vn -0.0000 -1.0000 -0.0000
vn -0.0000 1.0000 -0.0000
vt 0.625000 0.000000
vt 0.375000 0.250000
vt 0.375000 0.000000
vt 0.625000 0.250000
vt 0.375000 0.500000
vt 0.625000 0.500000
vt 0.375000 0.750000
vt 0.625000 0.750000
vt 0.375000 1.000000
vt 0.125000 0.750000
vt 0.125000 0.500000
vt 0.875000 0.500000
vt 0.625000 1.000000
vt 0.875000 0.750000
s 0
usemtl DiffuseBlue
f 2/1/1 3/2/1 1/3/1
f 4/4/2 7/5/2 3/2/2
f 8/6/3 5/7/3 7/5/3
f 6/8/4 1/9/4 5/7/4
f 7/5/5 1/10/5 3/11/5
f 4/12/6 6/8/6 8/6/6
f 2/1/1 4/4/1 3/2/1
f 4/4/2 8/6/2 7/5/2
f 8/6/3 6/8/3 5/7/3
f 6/8/4 2/13/4 1/9/4
f 7/5/5 5/7/5 1/10/5
f 4/12/6 2/14/6 6/8/6
o Cube.001
v -2.000000 -2.000000 -2.000000
v -2.000000 2.000000 -2.000000
v 2.000000 -2.000000 -2.000000
v 2.000000 2.000000 -2.000000
v -2.000000 -2.000000 2.000000
v -2.000000 2.000000 2.000000
v 2.000000 -2.000000 2.000000
v 2.000000 2.000000 2.000000
vn -0.0000 -0.0000 -1.0000
vn 1.0000 -0.0000 -0.0000
vn -1.0000 -0.0000 -0.0000
vn -0.0000 -1.0000 -0.0000
vn -0.0000 1.0000 -0.0000
vt 0.625000 0.000000
vt 0.375000 0.250000
vt 0.375000 0.000000
vt 0.625000 0.250000
vt 0.375000 0.500000
vt 0.625000 0.750000
vt 0.375000 1.000000
vt 0.375000 0.750000
vt 0.125000 0.750000
vt 0.125000 0.500000
vt 0.875000 0.500000
vt 0.625000 0.500000
vt 0.625000 1.000000
vt 0.875000 0.750000
s 0
usemtl DiffuseGray
f 10/15/7 11/16/7 9/17/7
f 12/18/8 15/19/8 11/16/8
f 14/20/9 9/21/9 13/22/9
f 15/19/10 9/23/10 11/24/10
f 12/25/11 14/20/11 16/26/11
f 10/15/7 12/18/7 11/16/7
f 12/18/8 16/26/8 15/19/8
f 14/20/9 10/27/9 9/21/9
f 15/19/10 13/22/10 9/23/10
f 12/25/11 10/28/11 14/20/11
o Cube.002
v 0.835349 -2.000000 -1.075078
v 0.835349 -0.933333 -1.075078
v 1.728428 -2.000000 -0.491823
v 1.728428 -0.933333 -0.491823
v 0.252094 -2.000000 -0.181998
v 0.252094 -0.933333 -0.181998
v 1.145174 -2.000000 0.401257
v 1.145174 -0.933333 0.401257
vn 0.5468 -0.0000 -0.8373
vn 0.8373 -0.0000 0.5468
vn -0.5468 -0.0000 0.8373
vn -0.8373 -0.0000 -0.5468
vn -0.0000 -1.0000 -0.0000
vn -0.0000 1.0000 -0.0000
vt 0.625000 0.000000
vt 0.375000 0.250000
vt 0.375000 0.000000
vt 0.625000 0.250000
vt 0.375000 0.500000
vt 0.625000 0.500000
vt 0.375000 0.750000
vt 0.625000 0.750000
vt 0.375000 1.000000
vt 0.125000 0.750000
vt 0.125000 0.500000
vt 0.875000 0.500000
vt 0.625000 1.000000
vt 0.875000 0.750000
s 0
usemtl DiffuseRed
f 18/29/12 19/30/12 17/31/12
f 20/32/13 23/33/13 19/30/13
f 24/34/14 21/35/14 23/33/14
f 22/36/15 17/37/15 21/35/15
f 23/33/16 17/38/16 19/39/16
f 20/40/17 22/36/17 24/34/17
f 18/29/12 20/32/12 19/30/12
f 20/32/13 24/34/13 23/33/13
f 24/34/14 22/36/14 21/35/14
f 22/36/15 18/41/15 17/37/15
f 23/33/16 21/35/16 17/38/16
f 20/40/17 18/42/17 22/36/17
o Icosphere
v 1.179998 -0.094993 0.693815
v 1.496429 0.146736 0.923713
v 1.059135 0.146736 1.065801
v 0.788869 0.146738 0.693815
v 1.059135 0.146736 0.321829
v 1.496429 0.146736 0.463917
v 1.300862 0.537871 1.065801
v 0.863567 0.537871 0.923713
v 0.863567 0.537871 0.463917
v 1.300862 0.537871 0.321829
v 1.571127 0.537869 0.693815
v 1.179998 0.779600 0.693815
v 1.108957 -0.029684 0.912461
v 1.365990 -0.029684 0.828944
v 1.294950 0.112401 1.047593
v 1.551983 0.112401 0.693815
v 1.365990 -0.029684 0.558685
v 0.950099 -0.029683 0.693815
v 0.879056 0.112401 0.912462
v 1.108957 -0.029684 0.475169
v 0.879056 0.112401 0.475168
v 1.294950 0.112401 0.340037
v 1.595892 0.342304 0.828945
v 1.595892 0.342304 0.558685
v 1.179998 0.342304 1.131111
v 1.437035 0.342304 1.047595
v 0.764104 0.342304 0.828945
v 0.922962 0.342304 1.047595
v 0.922962 0.342304 0.340035
v 0.764104 0.342304 0.558685
v 1.437035 0.342304 0.340035
v 1.179998 0.342304 0.256519
v 1.480941 0.572206 0.912462
v 1.065047 0.572207 1.047593
v 0.808013 0.572206 0.693815
v 1.065047 0.572207 0.340037
v 1.480941 0.572206 0.475168
v 1.251039 0.714292 0.912461
v 1.409898 0.714290 0.693815
v 0.994006 0.714292 0.828944
v 0.994006 0.714292 0.558685
v 1.251039 0.714292 0.475169
vn -0.0000 -1.0000 -0.0000
vn 0.7236 -0.4472 0.5257
vn -0.2764 -0.4472 0.8506
vn -0.8944 -0.4472 -0.0000
vn -0.2764 -0.4472 -0.8506
vn 0.7236 -0.4472 -0.5257
vn 0.2764 0.4472 0.8506
vn -0.7236 0.4472 0.5257
vn -0.7236 0.4472 -0.5257
vn 0.2764 0.4472 -0.8506
vn 0.8944 0.4472 -0.0000
vn -0.0000 1.0000 -0.0000
vn -0.1625 -0.8507 0.5000
vn 0.4253 -0.8507 0.3090
vn 0.2629 -0.5257 0.8090
vn 0.8506 -0.5257 -0.0000
vn 0.4253 -0.8507 -0.3090
vn -0.5257 -0.8507 -0.0000
vn -0.6882 -0.5257 0.5000
vn -0.1625 -0.8507 -0.5000
vn -0.6882 -0.5257 -0.5000
vn 0.2629 -0.5257 -0.8090
vn 0.9511 -0.0000 0.3090
vn 0.9511 -0.0000 -0.3090
vn -0.0000 -0.0000 1.0000
vn 0.5878 -0.0000 0.8090
vn -0.9511 -0.0000 0.3090
vn -0.5878 -0.0000 0.8090
vn -0.5878 -0.0000 -0.8090
vn -0.9511 -0.0000 -0.3090
vn 0.5878 -0.0000 -0.8090
vn -0.0000 -0.0000 -1.0000
vn 0.6882 0.5257 0.5000
vn -0.2629 0.5257 0.8090
vn -0.8506 0.5257 -0.0000
vn -0.2629 0.5257 -0.8090
vn 0.6882 0.5257 -0.5000
vn 0.1625 0.8507 0.5000
vn 0.5257 0.8507 -0.0000
vn -0.4253 0.8507 0.3090
vn -0.4253 0.8507 -0.3090
vn 0.1625 0.8507 -0.5000
vt 0.181819 0.000000
vt 0.227273 0.078731
vt 0.136365 0.078731
vt 0.272728 0.157461
vt 0.318182 0.078731
vt 0.363637 0.157461
vt 0.909091 0.000000
vt 0.954545 0.078731
vt 0.863636 0.078731
vt 0.727273 0.000000
vt 0.772727 0.078731
vt 0.681818 0.078731
vt 0.545455 0.000000
vt 0.590909 0.078731
vt 0.500000 0.078731
vt 0.318182 0.236191
vt 0.090910 0.157461
vt 0.181819 0.157461
vt 0.136365 0.236191
vt 0.818182 0.157461
vt 0.909091 0.157461
vt 0.863636 0.236191
vt 0.636364 0.157461
vt 0.727273 0.157461
vt 0.681818 0.236191
vt 0.454546 0.157461
vt 0.545455 0.157461
vt 0.500000 0.236191
vt 0.227273 0.236191
vt 0.045455 0.236191
vt 0.772727 0.236191
vt 0.590909 0.236191
vt 0.409092 0.236191
vt 0.181819 0.314921
vt 0.272728 0.314921
vt 0.227273 0.393651
vt 0.000000 0.314921
vt 0.090910 0.314921
vt 0.045455 0.393651
vt 0.727273 0.314921
vt 0.818182 0.314921
vt 0.772727 0.393651
vt 0.545455 0.314921
vt 0.636364 0.314921
vt 0.590909 0.393651
vt 0.363637 0.314921
vt 0.454546 0.314921
vt 0.409092 0.393651
vt 0.500000 0.393651
vt 0.454546 0.472382
vt 0.681818 0.393651
vt 0.636364 0.472382
vt 0.863636 0.393651
vt 0.818182 0.472382
vt 0.909091 0.314921
vt 0.136365 0.393651
vt 0.090910 0.472382
vt 0.318182 0.393651
vt 0.272728 0.472382
vt 0.954545 0.236191
vt 1.000000 0.157461
vt 0.409092 0.078731
vt 0.363637 0.000000
s 1
usemtl Material.001
f 25/43/18 38/44/31 37/45/30
f 26/46/19 38/47/31 40/48/33
f 25/49/18 37/50/30 42/51/35
f 25/52/18 42/53/35 44/54/37
f 25/55/18 44/56/37 41/57/34
f 26/46/19 40/48/33 47/58/40
f 27/59/20 39/60/32 49/61/42
f 28/62/21 43/63/36 51/64/44
f 29/65/22 45/66/38 53/67/46
f 30/68/23 46/69/39 55/70/48
f 26/46/19 47/58/40 50/71/43
f 27/59/20 49/61/42 52/72/45
f 28/62/21 51/64/44 54/73/47
f 29/65/22 53/67/46 56/74/49
f 30/68/23 55/70/48 48/75/41
f 31/76/24 57/77/50 62/78/55
f 32/79/25 58/80/51 64/81/57
f 33/82/26 59/83/52 65/84/58
f 34/85/27 60/86/53 66/87/59
f 35/88/28 61/89/54 63/90/56
f 63/90/56 66/91/59 36/92/29
f 63/90/56 61/89/54 66/91/59
f 61/89/54 34/85/27 66/91/59
f 66/87/59 65/93/58 36/94/29
f 66/87/59 60/86/53 65/93/58
f 60/86/53 33/82/26 65/93/58
f 65/84/58 64/95/57 36/96/29
f 65/84/58 59/83/52 64/95/57
f 59/83/52 32/97/25 64/95/57
f 64/81/57 62/98/55 36/99/29
f 64/81/57 58/80/51 62/98/55
f 58/80/51 31/76/24 62/98/55
f 62/78/55 63/100/56 36/101/29
f 62/78/55 57/77/50 63/100/56
f 57/77/50 35/88/28 63/100/56
f 48/75/41 61/89/54 35/88/28
f 48/75/41 55/70/48 61/89/54
f 55/70/48 34/85/27 61/89/54
f 56/74/49 60/86/53 34/85/27
f 56/74/49 53/67/46 60/86/53
f 53/67/46 33/82/26 60/86/53
f 54/73/47 59/83/52 33/82/26
f 54/73/47 51/64/44 59/83/52
f 51/64/44 32/97/25 59/83/52
f 52/72/45 58/80/51 32/79/25
f 52/72/45 49/61/42 58/80/51
f 49/61/42 31/76/24 58/80/51
f 50/71/43 57/77/50 31/76/24
f 50/71/43 47/58/40 57/77/50
f 47/58/40 35/88/28 57/77/50
f 55/70/48 56/74/49 34/85/27
f 55/70/48 46/69/39 56/74/49
f 46/69/39 29/65/22 56/74/49
f 53/67/46 54/73/47 33/82/26
f 53/67/46 45/66/38 54/73/47
f 45/66/38 28/62/21 54/73/47
f 51/64/44 52/102/45 32/97/25
f 51/64/44 43/63/36 52/102/45
f 43/63/36 27/103/20 52/102/45
f 49/61/42 50/71/43 31/76/24
f 49/61/42 39/60/32 50/71/43
f 39/60/32 26/46/19 50/71/43
f 47/58/40 48/75/41 35/88/28
f 47/58/40 40/48/33 48/75/41
f 40/48/33 30/68/23 48/75/41
f 41/57/34 46/69/39 30/68/23
f 41/57/34 44/56/37 46/69/39
f 44/56/37 29/65/22 46/69/39
f 44/54/37 45/66/38 29/65/22
f 44/54/37 42/53/35 45/66/38
f 42/53/35 28/62/21 45/66/38
f 42/51/35 43/63/36 28/62/21
f 42/51/35 37/50/30 43/63/36
f 37/50/30 27/103/20 43/63/36
f 40/48/33 41/104/34 30/68/23
f 40/48/33 38/47/31 41/104/34
f 38/47/31 25/105/18 41/104/34
f 37/45/30 39/60/32 27/59/20
f 37/45/30 38/44/31 39/60/32
f 38/44/31 26/46/19 39/60/32
