# Blender 4.2.1 LTS
# www.blender.org
mtllib Box_IOR.mtl
o Cube.001
v -2.000000 -2.000000 -2.000000
v -2.000000 2.000000 -2.000000
v 2.000000 -2.000000 -2.000000
v 2.000000 2.000000 -2.000000
v -2.000000 -2.000000 2.000000
v -2.000000 2.000000 2.000000
v 2.000000 -2.000000 2.000000
v 2.000000 2.000000 2.000000
vn -0.0000 -0.0000 -1.0000
vn 1.0000 -0.0000 -0.0000
vn -1.0000 -0.0000 -0.0000
vn -0.0000 -1.0000 -0.0000
vn -0.0000 1.0000 -0.0000
vt 0.625000 0.000000
vt 0.375000 0.250000
vt 0.375000 0.000000
vt 0.625000 0.250000
vt 0.375000 0.500000
vt 0.625000 0.750000
vt 0.375000 1.000000
vt 0.375000 0.750000
vt 0.125000 0.750000
vt 0.125000 0.500000
vt 0.875000 0.500000
vt 0.625000 0.500000
vt 0.625000 1.000000
vt 0.875000 0.750000
s 0
usemtl DiffuseGray
f 2/1/1 3/2/1 1/3/1
f 4/4/2 7/5/2 3/2/2
f 6/6/3 1/7/3 5/8/3
f 7/5/4 1/9/4 3/10/4
f 4/11/5 6/6/5 8/12/5
f 2/1/1 4/4/1 3/2/1
f 4/4/2 8/12/2 7/5/2
f 6/6/3 2/13/3 1/7/3
f 7/5/4 5/8/4 1/9/4
f 4/11/5 2/14/5 6/6/5
o Cube
v -1.000000 -1.000000 -0.452570
v -1.000000 1.000000 -0.452570
v -1.000000 -1.000000 -2.452570
v -1.000000 1.000000 -2.452570
v 1.000000 -1.000000 -0.452570
v 1.000000 1.000000 -0.452570
v 1.000000 -1.000000 -2.452570
v 1.000000 1.000000 -2.452570
vn -1.0000 -0.0000 -0.0000
vn -0.0000 -0.0000 -1.0000
vn 1.0000 -0.0000 -0.0000
vn -0.0000 -0.0000 1.0000
vn -0.0000 -1.0000 -0.0000
vn -0.0000 1.0000 -0.0000
vt 0.375000 0.000000
vt 0.625000 0.000000
vt 0.625000 0.250000
vt 0.375000 0.250000
vt 0.625000 0.500000
vt 0.375000 0.500000
vt 0.625000 0.750000
vt 0.375000 0.750000
vt 0.625000 1.000000
vt 0.375000 1.000000
vt 0.125000 0.500000
vt 0.125000 0.750000
vt 0.875000 0.500000
vt 0.875000 0.750000
s 0
usemtl DiffuseBlue
f 9/15/6 10/16/6 12/17/6 11/18/6
f 11/18/7 12/17/7 16/19/7 15/20/7
f 15/20/8 16/19/8 14/21/8 13/22/8
f 13/22/9 14/21/9 10/23/9 9/24/9
f 11/25/10 15/20/10 13/22/10 9/26/10
f 16/19/11 12/27/11 10/28/11 14/21/11
o Cube.003
v 0.500000 -0.500000 1.826198
v 0.500000 0.500000 1.826198
v 0.500000 -0.500000 1.776198
v 0.500000 0.500000 1.776198
v 1.500000 -0.500000 1.826198
v 1.500000 0.500000 1.826198
v 1.500000 -0.500000 1.776198
v 1.500000 0.500000 1.776198
vn -1.0000 -0.0000 -0.0000
vn -0.0000 -0.0000 -1.0000
vn 1.0000 -0.0000 -0.0000
vn -0.0000 -0.0000 1.0000
vn -0.0000 -1.0000 -0.0000
vn -0.0000 1.0000 -0.0000
vt 0.375000 0.000000
vt 0.625000 0.000000
vt 0.625000 0.250000
vt 0.375000 0.250000
vt 0.625000 0.500000
vt 0.375000 0.500000
vt 0.625000 0.750000
vt 0.375000 0.750000
vt 0.625000 1.000000
vt 0.375000 1.000000
vt 0.125000 0.500000
vt 0.125000 0.750000
vt 0.875000 0.500000
vt 0.875000 0.750000
s 0
usemtl Material.020
f 17/29/12 18/30/12 20/31/12 19/32/12
f 19/32/13 20/31/13 24/33/13 23/34/13
f 23/34/14 24/33/14 22/35/14 21/36/14
f 21/36/15 22/35/15 18/37/15 17/38/15
f 19/39/16 23/34/16 21/36/16 17/40/16
f 24/33/17 20/41/17 18/42/17 22/35/17
o Cube.004
v -1.500000 -0.500000 1.826198
v -1.500000 0.500000 1.826198
v -1.500000 -0.500000 1.776198
v -1.500000 0.500000 1.776198
v -0.500000 -0.500000 1.826198
v -0.500000 0.500000 1.826198
v -0.500000 -0.500000 1.776198
v -0.500000 0.500000 1.776198
vn -1.0000 -0.0000 -0.0000
vn -0.0000 -0.0000 -1.0000
vn 1.0000 -0.0000 -0.0000
vn -0.0000 -0.0000 1.0000
vn -0.0000 -1.0000 -0.0000
vn -0.0000 1.0000 -0.0000
vt 0.375000 0.000000
vt 0.625000 0.000000
vt 0.625000 0.250000
vt 0.375000 0.250000
vt 0.625000 0.500000
vt 0.375000 0.500000
vt 0.625000 0.750000
vt 0.375000 0.750000
vt 0.625000 1.000000
vt 0.375000 1.000000
vt 0.125000 0.500000
vt 0.125000 0.750000
vt 0.875000 0.500000
vt 0.875000 0.750000
s 0
usemtl Material.018
f 25/43/18 26/44/18 28/45/18 27/46/18
f 27/46/19 28/45/19 32/47/19 31/48/19
f 31/48/20 32/47/20 30/49/20 29/50/20
f 29/50/21 30/49/21 26/51/21 25/52/21
f 27/53/22 31/48/22 29/50/22 25/54/22
f 32/47/23 28/55/23 26/56/23 30/49/23
o Cube.005
v -0.500000 0.500000 1.826198
v -0.500000 1.500000 1.826198
v -0.500000 0.500000 1.776198
v -0.500000 1.500000 1.776198
v 0.500000 0.500000 1.826198
v 0.500000 1.500000 1.826198
v 0.500000 0.500000 1.776198
v 0.500000 1.500000 1.776198
vn -1.0000 -0.0000 -0.0000
vn -0.0000 -0.0000 -1.0000
vn 1.0000 -0.0000 -0.0000
vn -0.0000 -0.0000 1.0000
vn -0.0000 -1.0000 -0.0000
vn -0.0000 1.0000 -0.0000
vt 0.375000 0.000000
vt 0.625000 0.000000
vt 0.625000 0.250000
vt 0.375000 0.250000
vt 0.625000 0.500000
vt 0.375000 0.500000
vt 0.625000 0.750000
vt 0.375000 0.750000
vt 0.625000 1.000000
vt 0.375000 1.000000
vt 0.125000 0.500000
vt 0.125000 0.750000
vt 0.875000 0.500000
vt 0.875000 0.750000
s 0
usemtl Material.016
f 33/57/24 34/58/24 36/59/24 35/60/24
f 35/60/25 36/59/25 40/61/25 39/62/25
f 39/62/26 40/61/26 38/63/26 37/64/26
f 37/64/27 38/63/27 34/65/27 33/66/27
f 35/67/28 39/62/28 37/64/28 33/68/28
f 40/61/29 36/69/29 34/70/29 38/63/29
o Cube.006
v 0.500000 0.500000 1.826198
v 0.500000 1.500000 1.826198
v 0.500000 0.500000 1.776198
v 0.500000 1.500000 1.776198
v 1.500000 0.500000 1.826198
v 1.500000 1.500000 1.826198
v 1.500000 0.500000 1.776198
v 1.500000 1.500000 1.776198
vn -1.0000 -0.0000 -0.0000
vn -0.0000 -0.0000 -1.0000
vn 1.0000 -0.0000 -0.0000
vn -0.0000 -0.0000 1.0000
vn -0.0000 -1.0000 -0.0000
vn -0.0000 1.0000 -0.0000
vt 0.375000 0.000000
vt 0.625000 0.000000
vt 0.625000 0.250000
vt 0.375000 0.250000
vt 0.625000 0.500000
vt 0.375000 0.500000
vt 0.625000 0.750000
vt 0.375000 0.750000
vt 0.625000 1.000000
vt 0.375000 1.000000
vt 0.125000 0.500000
vt 0.125000 0.750000
vt 0.875000 0.500000
vt 0.875000 0.750000
s 0
usemtl Material.017
f 41/71/30 42/72/30 44/73/30 43/74/30
f 43/74/31 44/73/31 48/75/31 47/76/31
f 47/76/32 48/75/32 46/77/32 45/78/32
f 45/78/33 46/77/33 42/79/33 41/80/33
f 43/81/34 47/76/34 45/78/34 41/82/34
f 48/75/35 44/83/35 42/84/35 46/77/35
o Cube.007
v -1.500000 0.500000 1.826198
v -1.500000 1.500000 1.826198
v -1.500000 0.500000 1.776198
v -1.500000 1.500000 1.776198
v -0.500000 0.500000 1.826198
v -0.500000 1.500000 1.826198
v -0.500000 0.500000 1.776198
v -0.500000 1.500000 1.776198
vn -1.0000 -0.0000 -0.0000
vn -0.0000 -0.0000 -1.0000
vn 1.0000 -0.0000 -0.0000
vn -0.0000 -0.0000 1.0000
vn -0.0000 -1.0000 -0.0000
vn -0.0000 1.0000 -0.0000
vt 0.375000 0.000000
vt 0.625000 0.000000
vt 0.625000 0.250000
vt 0.375000 0.250000
vt 0.625000 0.500000
vt 0.375000 0.500000
vt 0.625000 0.750000
vt 0.375000 0.750000
vt 0.625000 1.000000
vt 0.375000 1.000000
vt 0.125000 0.500000
vt 0.125000 0.750000
vt 0.875000 0.500000
vt 0.875000 0.750000
s 0
usemtl Material.015
f 49/85/36 50/86/36 52/87/36 51/88/36
f 51/88/37 52/87/37 56/89/37 55/90/37
f 55/90/38 56/89/38 54/91/38 53/92/38
f 53/92/39 54/91/39 50/93/39 49/94/39
f 51/95/40 55/90/40 53/92/40 49/96/40
f 56/89/41 52/97/41 50/98/41 54/91/41
o Cube.008
v -0.500000 -1.500000 1.826198
v -0.500000 -0.500000 1.826198
v -0.500000 -1.500000 1.776198
v -0.500000 -0.500000 1.776198
v 0.500000 -1.500000 1.826198
v 0.500000 -0.500000 1.826198
v 0.500000 -1.500000 1.776198
v 0.500000 -0.500000 1.776198
vn -1.0000 -0.0000 -0.0000
vn -0.0000 -0.0000 -1.0000
vn 1.0000 -0.0000 -0.0000
vn -0.0000 -0.0000 1.0000
vn -0.0000 -1.0000 -0.0000
vn -0.0000 1.0000 -0.0000
vt 0.375000 0.000000
vt 0.625000 0.000000
vt 0.625000 0.250000
vt 0.375000 0.250000
vt 0.625000 0.500000
vt 0.375000 0.500000
vt 0.625000 0.750000
vt 0.375000 0.750000
vt 0.625000 1.000000
vt 0.375000 1.000000
vt 0.125000 0.500000
vt 0.125000 0.750000
vt 0.875000 0.500000
vt 0.875000 0.750000
s 0
usemtl Material.022
f 57/99/42 58/100/42 60/101/42 59/102/42
f 59/102/43 60/101/43 64/103/43 63/104/43
f 63/104/44 64/103/44 62/105/44 61/106/44
f 61/106/45 62/105/45 58/107/45 57/108/45
f 59/109/46 63/104/46 61/106/46 57/110/46
f 64/103/47 60/111/47 58/112/47 62/105/47
o Cube.009
v 0.500000 -1.500000 1.826198
v 0.500000 -0.500000 1.826198
v 0.500000 -1.500000 1.776198
v 0.500000 -0.500000 1.776198
v 1.500000 -1.500000 1.826198
v 1.500000 -0.500000 1.826198
v 1.500000 -1.500000 1.776198
v 1.500000 -0.500000 1.776198
vn -1.0000 -0.0000 -0.0000
vn -0.0000 -0.0000 -1.0000
vn 1.0000 -0.0000 -0.0000
vn -0.0000 -0.0000 1.0000
vn -0.0000 -1.0000 -0.0000
vn -0.0000 1.0000 -0.0000
vt 0.375000 0.000000
vt 0.625000 0.000000
vt 0.625000 0.250000
vt 0.375000 0.250000
vt 0.625000 0.500000
vt 0.375000 0.500000
vt 0.625000 0.750000
vt 0.375000 0.750000
vt 0.625000 1.000000
vt 0.375000 1.000000
vt 0.125000 0.500000
vt 0.125000 0.750000
vt 0.875000 0.500000
vt 0.875000 0.750000
s 0
usemtl Material.023
f 65/113/48 66/114/48 68/115/48 67/116/48
f 67/116/49 68/115/49 72/117/49 71/118/49
f 71/118/50 72/117/50 70/119/50 69/120/50
f 69/120/51 70/119/51 66/121/51 65/122/51
f 67/123/52 71/118/52 69/120/52 65/124/52
f 72/117/53 68/125/53 66/126/53 70/119/53
o Cube.010
v -1.500000 -1.500000 1.826198
v -1.500000 -0.500000 1.826198
v -1.500000 -1.500000 1.776198
v -1.500000 -0.500000 1.776198
v -0.500000 -1.500000 1.826198
v -0.500000 -0.500000 1.826198
v -0.500000 -1.500000 1.776198
v -0.500000 -0.500000 1.776198
vn -1.0000 -0.0000 -0.0000
vn -0.0000 -0.0000 -1.0000
vn 1.0000 -0.0000 -0.0000
vn -0.0000 -0.0000 1.0000
vn -0.0000 -1.0000 -0.0000
vn -0.0000 1.0000 -0.0000
vt 0.375000 0.000000
vt 0.625000 0.000000
vt 0.625000 0.250000
vt 0.375000 0.250000
vt 0.625000 0.500000
vt 0.375000 0.500000
vt 0.625000 0.750000
vt 0.375000 0.750000
vt 0.625000 1.000000
vt 0.375000 1.000000
vt 0.125000 0.500000
vt 0.125000 0.750000
vt 0.875000 0.500000
vt 0.875000 0.750000
s 0
usemtl Material.021
f 73/127/54 74/128/54 76/129/54 75/130/54
f 75/130/55 76/129/55 80/131/55 79/132/55
f 79/132/56 80/131/56 78/133/56 77/134/56
f 77/134/57 78/133/57 74/135/57 73/136/57
f 75/137/58 79/132/58 77/134/58 73/138/58
f 80/131/59 76/139/59 74/140/59 78/133/59
