# Blender 4.2.1 LTS
# www.blender.org
mtllib Box_Anisotropic.mtl
o Cube.001
v -2.000000 -2.000000 -2.000000
v -2.000000 2.000000 -2.000000
v 2.000000 -2.000000 -2.000000
v 2.000000 2.000000 -2.000000
v -2.000000 -2.000000 2.000000
v -2.000000 2.000000 2.000000
v 2.000000 -2.000000 2.000000
v 2.000000 2.000000 2.000000
vn -0.0000 -0.0000 -1.0000
vn 1.0000 -0.0000 -0.0000
vn -1.0000 -0.0000 -0.0000
vn -0.0000 -1.0000 -0.0000
vn -0.0000 1.0000 -0.0000
vt 0.625000 0.000000
vt 0.375000 0.250000
vt 0.375000 0.000000
vt 0.625000 0.250000
vt 0.375000 0.500000
vt 0.625000 0.750000
vt 0.375000 1.000000
vt 0.375000 0.750000
vt 0.125000 0.750000
vt 0.125000 0.500000
vt 0.875000 0.500000
vt 0.625000 0.500000
vt 0.625000 1.000000
vt 0.875000 0.750000
s 0
usemtl DiffuseGray
f 2/1/1 3/2/1 1/3/1
f 4/4/2 7/5/2 3/2/2
f 6/6/3 1/7/3 5/8/3
f 7/5/4 1/9/4 3/10/4
f 4/11/5 6/6/5 8/12/5
f 2/1/1 4/4/1 3/2/1
f 4/4/2 8/12/2 7/5/2
f 6/6/3 2/13/3 1/7/3
f 7/5/4 5/8/4 1/9/4
f 4/11/5 2/14/5 6/6/5
o Cube
v -0.122499 -0.833547 -1.693229
v -0.047122 -0.153964 -1.035532
v -0.701018 -0.278475 -2.200468
v -0.625641 0.401107 -1.542771
v 0.625641 -0.472793 -2.151730
v 0.701018 0.206789 -1.494032
v 0.047122 0.082278 -2.658968
v 0.122499 0.761861 -2.001271
vn -0.7886 -0.3803 0.4833
vn -0.6098 0.5851 -0.5347
vn 0.7886 0.3803 -0.4833
vn 0.6098 -0.5851 0.5347
vn -0.0795 -0.7163 -0.6932
vn 0.0795 0.7163 0.6932
vt 0.375000 0.000000
vt 0.625000 0.000000
vt 0.625000 0.250000
vt 0.375000 0.250000
vt 0.625000 0.500000
vt 0.375000 0.500000
vt 0.625000 0.750000
vt 0.375000 0.750000
vt 0.625000 1.000000
vt 0.375000 1.000000
vt 0.125000 0.500000
vt 0.125000 0.750000
vt 0.875000 0.500000
vt 0.875000 0.750000
s 0
usemtl Material.001
f 9/15/6 10/16/6 12/17/6 11/18/6
f 11/18/7 12/17/7 16/19/7 15/20/7
f 15/20/8 16/19/8 14/21/8 13/22/8
f 13/22/9 14/21/9 10/23/9 9/24/9
f 11/25/10 15/20/10 13/22/10 9/26/10
f 16/19/11 12/27/11 10/28/11 14/21/11
o Cube.002
v -1.908473 -1.695546 1.051196
v -1.217189 -1.072019 1.234005
v -2.476073 -0.986151 0.777939
v -1.784789 -0.362624 0.960748
v -1.592189 -1.785283 0.161257
v -0.900905 -1.161756 0.344066
v -2.159789 -1.075888 -0.112000
v -1.468505 -0.452361 0.070809
vn -0.3334 0.0946 0.9380
vn -0.5983 0.7477 -0.2880
vn 0.3334 -0.0946 -0.9380
vn 0.5983 -0.7477 0.2880
vn -0.7286 -0.6572 -0.1927
vn 0.7286 0.6572 0.1927
vt 0.375000 0.000000
vt 0.625000 0.000000
vt 0.625000 0.250000
vt 0.375000 0.250000
vt 0.625000 0.500000
vt 0.375000 0.500000
vt 0.625000 0.750000
vt 0.375000 0.750000
vt 0.625000 1.000000
vt 0.375000 1.000000
vt 0.125000 0.500000
vt 0.125000 0.750000
vt 0.875000 0.500000
vt 0.875000 0.750000
s 0
usemtl Material.003
f 17/29/12 18/30/12 20/31/12 19/32/12
f 19/32/13 20/31/13 24/33/13 23/34/13
f 23/34/14 24/33/14 22/35/14 21/36/14
f 21/36/15 22/35/15 18/37/15 17/38/15
f 19/39/16 23/34/16 21/36/16 17/40/16
f 24/33/17 20/41/17 18/42/17 22/35/17
o Cube.003
v 1.598809 -1.072211 -2.307168
v 1.000371 -0.862028 -1.601637
v 2.119092 -0.308198 -2.093463
v 1.520653 -0.098016 -1.387932
v 2.119632 -1.593927 -1.709978
v 1.521193 -1.383744 -1.004447
v 2.639915 -0.829914 -1.496273
v 2.041476 -0.619732 -0.790742
vn -0.5490 0.5499 -0.6295
vn 0.5484 0.8053 0.2253
vn 0.5490 -0.5499 0.6295
vn -0.5484 -0.8053 -0.2253
vn 0.6308 -0.2215 -0.7437
vn -0.6308 0.2215 0.7437
vt 0.375000 0.000000
vt 0.625000 0.000000
vt 0.625000 0.250000
vt 0.375000 0.250000
vt 0.625000 0.500000
vt 0.375000 0.500000
vt 0.625000 0.750000
vt 0.375000 0.750000
vt 0.625000 1.000000
vt 0.375000 1.000000
vt 0.125000 0.500000
vt 0.125000 0.750000
vt 0.875000 0.500000
vt 0.875000 0.750000
s 0
usemtl Material.004
f 25/43/18 26/44/18 28/45/18 27/46/18
f 27/46/19 28/45/19 32/47/19 31/48/19
f 31/48/20 32/47/20 30/49/20 29/50/20
f 29/50/21 30/49/21 26/51/21 25/52/21
f 27/53/22 31/48/22 29/50/22 25/54/22
f 32/47/23 28/55/23 26/56/23 30/49/23
